<svg width="42" height="42" viewBox="0 0 42 42" fill="none" xmlns="http://www.w3.org/2000/svg">
<path d="M8.18752 31.625C9.95835 30.2709 11.9375 29.2031 14.125 28.4219C16.3125 27.6406 18.6042 27.25 21 27.25C23.3959 27.25 25.6875 27.6406 27.875 28.4219C30.0625 29.2031 32.0417 30.2709 33.8125 31.625C35.0278 30.2014 35.974 28.5868 36.6511 26.7813C37.3281 24.9757 37.6667 23.0486 37.6667 21C37.6667 16.382 36.0434 12.4497 32.7969 9.20315C29.5504 5.95662 25.6181 4.33335 21 4.33335C16.382 4.33335 12.4497 5.95662 9.20315 9.20315C5.95662 12.4497 4.33335 16.382 4.33335 21C4.33335 23.0486 4.6719 24.9757 5.34898 26.7813C6.02606 28.5868 6.97224 30.2014 8.18752 31.625ZM21 23.0834C18.9514 23.0834 17.224 22.3802 15.8177 20.974C14.4115 19.5677 13.7084 17.8403 13.7084 15.7917C13.7084 13.7431 14.4115 12.0156 15.8177 10.6094C17.224 9.20315 18.9514 8.50002 21 8.50002C23.0486 8.50002 24.7761 9.20315 26.1823 10.6094C27.5886 12.0156 28.2917 13.7431 28.2917 15.7917C28.2917 17.8403 27.5886 19.5677 26.1823 20.974C24.7761 22.3802 23.0486 23.0834 21 23.0834ZM21 41.8334C18.1181 41.8334 15.4097 41.2865 12.875 40.1927C10.3403 39.099 8.13544 37.6146 6.26044 35.7396C4.38544 33.8646 2.90106 31.6597 1.80731 29.125C0.713562 26.5903 0.166687 23.882 0.166687 21C0.166687 18.1181 0.713562 15.4097 1.80731 12.875C2.90106 10.3403 4.38544 8.13544 6.26044 6.26044C8.13544 4.38544 10.3403 2.90106 12.875 1.80731C15.4097 0.713562 18.1181 0.166687 21 0.166687C23.882 0.166687 26.5903 0.713562 29.125 1.80731C31.6597 2.90106 33.8646 4.38544 35.7396 6.26044C37.6146 8.13544 39.099 10.3403 40.1927 12.875C41.2865 15.4097 41.8334 18.1181 41.8334 21C41.8334 23.882 41.2865 26.5903 40.1927 29.125C39.099 31.6597 37.6146 33.8646 35.7396 35.7396C33.8646 37.6146 31.6597 39.099 29.125 40.1927C26.5903 41.2865 23.882 41.8334 21 41.8334Z" fill="#1D1B20"/>
</svg>
